<svg width="26" height="24" viewBox="0 0 26 24" fill="none" xmlns="http://www.w3.org/2000/svg">
<g clip-path="url(#clip0_3_6134)">
<path d="M0 12.811V23.9999H9.66805V0.303711C4.09181 1.72334 0 6.7943 0 12.811Z" fill="#231F20"/>
<path d="M20.0125 9.63362C20.7891 8.65345 21.2286 7.43532 21.2286 6.01671C21.2286 2.63573 18.6597 0.0668298 15.1096 0H11.4258V24H17.6116C22.2077 23.7965 25.3183 20.8236 25.3183 16.5971C25.3183 13.2171 23.1879 10.5804 20.0114 9.63362H20.0125ZM15.946 3.93081C16.8725 3.93081 17.6238 4.68214 17.6238 5.60864C17.6238 6.53514 16.8725 7.28647 15.946 7.28647C15.0195 7.28647 14.2681 6.53514 14.2681 5.60864C14.2681 4.68214 15.0195 3.93081 15.946 3.93081ZM19.0728 20.9137H14.9668C14.581 20.9137 14.2681 20.6008 14.2681 20.215V15.057C14.2681 14.3957 15.1015 14.1041 15.5136 14.6216L19.6196 19.7796C19.9841 20.2373 19.6581 20.9137 19.0728 20.9137Z" fill="#231F20"/>
</g>
<defs>
<clipPath id="clip0_3_6134">
<rect width="25.3194" height="24" fill="white"/>
</clipPath>
</defs>
</svg>
