<svg width="262" height="24" viewBox="0 0 262 24" fill="none" xmlns="http://www.w3.org/2000/svg">
<g clip-path="url(#clip0_88_1043)">
<path d="M8.81205 23.6606H0V13.4623C0 7.98097 3.73037 3.35924 8.81205 2.06503V23.6606ZM10.414 1.78589H13.7732C17.0087 1.84616 19.3497 4.19033 19.3497 7.27042C19.3497 8.56464 18.9469 9.67486 18.2395 10.5662C21.1356 11.429 23.0769 13.8335 23.0769 16.9136C23.0769 20.7645 20.2411 23.4766 16.0539 23.6606H10.4171V1.78589H10.414Z" fill="#563A83"/>
<path d="M33.5035 23.6606C28.7898 23.6606 24.8438 19.9936 24.8438 15.2799C24.8438 10.5662 28.7867 6.86755 33.5035 6.86755V23.6606ZM35.1054 23.6606V6.87073C39.8192 6.87073 43.6384 10.6899 43.6384 15.4036V23.6606H35.1054Z" fill="#563A83"/>
<path d="M46.0524 23.6606V7.39414H54.5853V23.6606H46.0524ZM58.931 6.89929C60.5329 6.89929 61.8589 8.22522 61.8589 9.82713C61.8589 11.429 60.5329 12.755 58.931 12.755C57.3291 12.755 56.0032 11.429 56.0032 9.82713C56.0032 8.22522 57.3291 6.89929 58.931 6.89929Z" fill="#563A83"/>
<path d="M71.8826 0V23.9715C67.1689 23.9715 63.3497 20.1523 63.3497 15.4385V0H71.8826ZM73.4845 23.9715C78.1983 23.9715 82.0175 20.1523 82.0175 15.4385C82.0175 10.7248 78.1983 6.90563 73.4845 6.90563V23.9746V23.9715Z" fill="#563A83"/>
<path d="M92.1681 23.6606C87.4544 23.6606 83.5083 19.9936 83.5083 15.2799C83.5083 10.5662 87.4512 6.86755 92.1681 6.86755V23.6606ZM93.77 23.6606V6.87073C98.4837 6.87073 102.303 10.6899 102.303 15.4036V23.6606H93.77Z" fill="#563A83"/>
<path d="M104.717 23.6606V7.39414H113.25V23.6606H104.717ZM117.596 6.89929C119.197 6.89929 120.523 8.22522 120.523 9.82713C120.523 11.429 119.197 12.755 117.596 12.755C115.994 12.755 114.668 11.429 114.668 9.82713C114.668 8.22522 115.994 6.89929 117.596 6.89929Z" fill="#563A83"/>
<path d="M129.374 23.6606C124.66 23.6606 120.717 19.9936 120.717 15.2799C120.717 10.5662 124.66 6.86755 129.374 6.86755V23.6606ZM130.975 23.6606V6.87073C135.689 6.87073 139.508 10.6899 139.508 15.4036V23.6606H130.975Z" fill="#563A83"/>
<path d="M148.089 13.4655C148.089 7.98092 151.819 3.39092 156.901 2.0967V23.6637H148.089V13.4655ZM158.503 1.78901C159.086 1.72557 159.673 1.69702 160.228 1.69702C166.081 1.69702 171.381 5.20852 171.381 10.5091C171.381 15.3465 166.883 19.2577 161.307 19.2577H161.183L165.957 23.6637H158.503V1.78584V1.78901Z" fill="#563A83"/>
<path d="M181.5 23.6606C176.787 23.6606 172.844 19.9936 172.844 15.2799C172.844 10.5662 176.787 6.86755 181.5 6.86755V23.6606ZM183.102 23.6606V6.87073C187.816 6.87073 191.635 10.6899 191.635 15.4036V23.6606H183.102Z" fill="#563A83"/>
<path d="M194.052 23.6606V7.39417H202.585V23.6606H194.052ZM204.187 23.6606V7.39417C208.901 7.39417 212.72 11.2134 212.72 15.9271V23.6606H204.187ZM214.322 23.6606V8.68838C219.036 8.68838 222.855 12.5076 222.855 17.2213V23.6606H214.322Z" fill="#563A83"/>
<path d="M233.104 24C228.39 24 224.571 20.1808 224.571 15.4671C224.571 10.7534 228.39 6.9342 233.104 6.9342V24.0032V24ZM234.706 24C239.419 24 243.239 20.1808 243.239 15.4671C243.239 10.7534 239.419 6.9342 234.706 6.9342V24.0032V24Z" fill="#563A83"/>
<path d="M259.118 15.9905C258.687 20.3046 255.051 23.6606 250.614 23.6606H244.546V15.9905H259.118ZM247.286 14.4203C247.994 10.414 251.477 7.39734 255.635 7.39734H261.675V14.4203H247.286Z" fill="#563A83"/>
</g>
<defs>
<clipPath id="clip0_88_1043">
<rect width="261.675" height="24" fill="white"/>
</clipPath>
</defs>
</svg>
